Coordinates
nRows=138
nColumns=2
inDegrees=yes
endheader
time	ankle_angle_r	
3	  9.502364	
3.0625	  9.440533	
3.125	  9.456723	
3.1875	  9.473663	
3.25	  9.458792	
3.3125	  9.470137	
3.375	  9.456582	
3.4375	  9.422795	
3.5	  9.440640	
3.5625	  9.441385	
3.625	  9.443222	
3.6875	  9.517672	
3.75	  9.570781	
3.8125	  9.553829	
3.875	  9.515853	
3.9375	  9.486649	
4	  9.490208	
4.0625	  9.530134	
4.125	  9.560232	
4.1875	  9.556112	
4.25	  9.550042	
4.3125	  9.526407	
4.375	  9.497793	
4.4375	  9.506121	
4.5	  9.490894	
4.5625	  9.453950	
4.625	  9.450872	
4.6875	  9.464242	
4.75	  9.473495	
4.8125	  9.446140	
4.875	  9.402875	
4.9375	  9.400608	
5	  9.423790	
5.0625	  9.472631	
5.125	  9.535062	
5.1875	  9.557141	
5.25	  9.546907	
5.3125	  9.541547	
5.375	  9.540402	
5.4375	  9.525281	
5.5	  9.523619	
5.5625	  9.552983	
5.625	  9.570592	
5.6875	  9.570359	
5.75	  9.558365	
5.8125	  9.537364	
5.875	  9.524980	
5.9375	  9.500639	
6	  9.477498	
6.0625	  9.485559	
6.125	  9.501841	
6.1875	  9.499160	
6.25	  9.449321	
6.3125	  9.386105	
6.375	  9.379538	
6.4375	  9.403839	
6.5	  9.431301	
6.5625	  9.473303	
6.625	  9.487769	
6.6875	  9.448611	
6.75	  9.425360	
6.8125	  9.468491	
6.875	  9.494769	
6.9375	  9.456683	
7	  9.433294	
7.0625	  9.443601	
7.125	  9.453871	
7.1875	  9.466512	
7.25	  9.480750	
7.3125	  9.489853	
7.375	  9.497095	
7.4375	  9.525602	
7.5	  9.562109	
7.5625	  9.560638	
7.625	  9.542814	
7.6875	  9.535188	
7.75	  9.523138	
7.8125	  9.506858	
7.875	  9.509361	
7.9375	  9.534744	
8	  9.525944	
8.0625	  9.505341	
8.125	  9.528180	
8.1875	  9.503349	
8.25	  9.421167	
8.3125	  9.396322	
8.375	  9.438519	
8.4375	  9.467316	
8.5	  9.443735	
8.5625	  9.434355	
8.625	  9.454377	
8.6875	  9.432748	
8.75	  9.390069	
8.8125	  9.382678	
8.875	  9.434049	
8.9375	  9.506200	
9	  9.507561	
9.0625	  9.457863	
9.125	  9.417883	
9.1875	  9.402474	
9.25	  9.424536	
9.3125	  9.427634	
9.375	  9.398712	
9.4375	  9.420063	
9.5	  9.483677	
9.5625	  9.511864	
9.625	  9.498167	
9.6875	  9.491861	
9.75	  9.507130	
9.8125	  9.531056	
9.875	  9.560274	
9.9375	  9.574436	
10	  9.551751	
10.0625	  9.514469	
10.125	  9.500739	
10.1875	  9.491866	
10.25	  9.448762	
10.3125	  9.407665	
10.375	  9.406176	
10.4375	  9.406906	
10.5	  9.395287	
10.5625	  9.391280	
10.625	  9.398227	
10.6875	  9.405992	
10.75	  9.393612	
10.8125	  9.403858	
10.875	  9.469900	
10.9375	  9.510151	
11	  9.484741	
11.0625	  9.439371	
11.125	  9.408748	
11.1875	  9.397156	
11.25	  9.410054	
11.3125	  9.448867	
11.375	  9.458609	
11.4375	  9.437987	
11.5	  9.421355	
11.5625	  9.370936	
